# xmcd
#
# Track frame offsets:
#	150
#	2700
#	20350
#	39600
#	55650
#	72800
#	90950
#	110826
#	124476
#	141226
#	158776
#	175326
#
# Disc length: 2367 seconds
#
# Revision: 1
# Processed by: cddbd v1.4PL0 Copyright (c) Steve Scherf et al.
# Submitted via: audiograbber 1.80
#
DISCID=9d093d0c
DTITLE=DJ Xeroxx - Mind Manipilation
DYEAR=1900
DGENRE=
TTITLE0=Intro
TTITLE1=The Chello
TTITLE2=Blue Pearls
TTITLE3=Finger Tips
TTITLE4=Mushroom Flash
TTITLE5=Mind Manipulation
TTITLE6=Shape It Up
TTITLE7=The Deep
TTITLE8=I´m Back
TTITLE9=From Outa Space
TTITLE10=Spacezone
TTITLE11=Outro
EXTD=
EXTT0=
EXTT1=
EXTT2=
EXTT3=
EXTT4=
EXTT5=
EXTT6=
EXTT7=
EXTT8=
EXTT9=
EXTT10=
EXTT11=
PLAYORDER=
